<mxfile host="app.diagrams.net" agent="Mozilla/5.0 (Windows NT 10.0; Win64; x64; rv:144.0) Gecko/20100101 Firefox/144.0" version="28.2.7">
  <diagram name="Page-1" id="ua7yvZ49ckPrBwXMsCdW">
    <mxGraphModel grid="1" page="1" gridSize="10" guides="1" tooltips="1" connect="1" arrows="1" fold="1" pageScale="1" pageWidth="1169" pageHeight="827" math="0" shadow="0">
      <root>
        <mxCell id="0" />
        <mxCell id="1" parent="0" />
        <mxCell id="PJhBvajnf2V6batIBrMc-2" value="&lt;div&gt;Publisher&lt;/div&gt;" style="rounded=0;whiteSpace=wrap;html=1;fontFamily=Times New Roman;fillColor=#f5f5f5;fontColor=#333333;strokeColor=#666666;" vertex="1" parent="1">
          <mxGeometry x="640" y="360" width="120" height="40" as="geometry" />
        </mxCell>
        <mxCell id="PJhBvajnf2V6batIBrMc-3" value="Author" style="rounded=0;whiteSpace=wrap;html=1;fontFamily=Times New Roman;fillColor=#f5f5f5;fontColor=#333333;strokeColor=#666666;" vertex="1" parent="1">
          <mxGeometry x="880" y="120" width="120" height="40" as="geometry" />
        </mxCell>
        <mxCell id="PJhBvajnf2V6batIBrMc-4" value="Customer" style="rounded=0;whiteSpace=wrap;html=1;fontFamily=Times New Roman;fillColor=#f5f5f5;fontColor=#333333;strokeColor=#666666;" vertex="1" parent="1">
          <mxGeometry x="160" y="600" width="120" height="40" as="geometry" />
        </mxCell>
        <mxCell id="PJhBvajnf2V6batIBrMc-5" value="Order" style="rounded=0;whiteSpace=wrap;html=1;fontFamily=Times New Roman;fillColor=#f5f5f5;fontColor=#333333;strokeColor=#666666;" vertex="1" parent="1">
          <mxGeometry x="560" y="600" width="120" height="40" as="geometry" />
        </mxCell>
        <mxCell id="PJhBvajnf2V6batIBrMc-8" value="Profile" style="rounded=0;whiteSpace=wrap;html=1;fontFamily=Times New Roman;fillColor=#f5f5f5;fontColor=#333333;strokeColor=#666666;" vertex="1" parent="1">
          <mxGeometry x="160" y="360" width="120" height="40" as="geometry" />
        </mxCell>
        <mxCell id="PJhBvajnf2V6batIBrMc-80" style="edgeStyle=orthogonalEdgeStyle;rounded=0;orthogonalLoop=1;jettySize=auto;html=1;exitX=1;exitY=0.5;exitDx=0;exitDy=0;entryX=0;entryY=0.5;entryDx=0;entryDy=0;" edge="1" parent="1" source="PJhBvajnf2V6batIBrMc-9" target="PJhBvajnf2V6batIBrMc-1">
          <mxGeometry relative="1" as="geometry">
            <mxPoint x="840" y="380" as="sourcePoint" />
          </mxGeometry>
        </mxCell>
        <mxCell id="PJhBvajnf2V6batIBrMc-81" style="edgeStyle=orthogonalEdgeStyle;rounded=0;orthogonalLoop=1;jettySize=auto;html=1;exitX=1;exitY=0.5;exitDx=0;exitDy=0;" edge="1" parent="1" source="PJhBvajnf2V6batIBrMc-9">
          <mxGeometry relative="1" as="geometry">
            <mxPoint x="870" y="380.16666666666674" as="targetPoint" />
            <mxPoint x="840" y="380" as="sourcePoint" />
          </mxGeometry>
        </mxCell>
        <mxCell id="PJhBvajnf2V6batIBrMc-82" style="edgeStyle=orthogonalEdgeStyle;rounded=0;orthogonalLoop=1;jettySize=auto;html=1;exitX=0;exitY=0.5;exitDx=0;exitDy=0;entryX=1;entryY=0.5;entryDx=0;entryDy=0;" edge="1" parent="1" source="PJhBvajnf2V6batIBrMc-9" target="PJhBvajnf2V6batIBrMc-2">
          <mxGeometry relative="1" as="geometry" />
        </mxCell>
        <mxCell id="PJhBvajnf2V6batIBrMc-9" value="B-P" style="rhombus;whiteSpace=wrap;html=1;fontFamily=Times New Roman;fillColor=#f5f5f5;fontColor=#333333;strokeColor=#666666;" vertex="1" parent="1">
          <mxGeometry x="800" y="360" width="40" height="40" as="geometry" />
        </mxCell>
        <mxCell id="PJhBvajnf2V6batIBrMc-15" style="rounded=0;orthogonalLoop=1;jettySize=auto;html=1;exitX=0.5;exitY=0;exitDx=0;exitDy=0;entryX=0.5;entryY=1;entryDx=0;entryDy=0;fontFamily=Times New Roman;" edge="1" parent="1" source="PJhBvajnf2V6batIBrMc-10" target="PJhBvajnf2V6batIBrMc-8">
          <mxGeometry relative="1" as="geometry" />
        </mxCell>
        <mxCell id="PJhBvajnf2V6batIBrMc-16" style="edgeStyle=orthogonalEdgeStyle;rounded=0;orthogonalLoop=1;jettySize=auto;html=1;exitX=0.5;exitY=1;exitDx=0;exitDy=0;entryX=0.5;entryY=0;entryDx=0;entryDy=0;fontFamily=Times New Roman;" edge="1" parent="1" source="PJhBvajnf2V6batIBrMc-10" target="PJhBvajnf2V6batIBrMc-4">
          <mxGeometry relative="1" as="geometry" />
        </mxCell>
        <mxCell id="PJhBvajnf2V6batIBrMc-10" value="P-C" style="rhombus;whiteSpace=wrap;html=1;fontFamily=Times New Roman;fillColor=#f5f5f5;fontColor=#333333;strokeColor=#666666;" vertex="1" parent="1">
          <mxGeometry x="200" y="480" width="40" height="40" as="geometry" />
        </mxCell>
        <mxCell id="PJhBvajnf2V6batIBrMc-20" style="edgeStyle=orthogonalEdgeStyle;rounded=0;orthogonalLoop=1;jettySize=auto;html=1;exitX=0;exitY=0.5;exitDx=0;exitDy=0;entryX=1;entryY=0.5;entryDx=0;entryDy=0;fontFamily=Times New Roman;" edge="1" parent="1" source="PJhBvajnf2V6batIBrMc-11" target="PJhBvajnf2V6batIBrMc-5">
          <mxGeometry relative="1" as="geometry">
            <mxPoint x="770" y="620" as="targetPoint" />
          </mxGeometry>
        </mxCell>
        <mxCell id="PJhBvajnf2V6batIBrMc-78" style="edgeStyle=orthogonalEdgeStyle;rounded=0;orthogonalLoop=1;jettySize=auto;html=1;exitX=0.5;exitY=0;exitDx=0;exitDy=0;entryX=0.5;entryY=1;entryDx=0;entryDy=0;" edge="1" parent="1" source="PJhBvajnf2V6batIBrMc-11" target="PJhBvajnf2V6batIBrMc-1">
          <mxGeometry relative="1" as="geometry" />
        </mxCell>
        <mxCell id="PJhBvajnf2V6batIBrMc-79" style="edgeStyle=orthogonalEdgeStyle;rounded=0;orthogonalLoop=1;jettySize=auto;html=1;exitX=0.5;exitY=0;exitDx=0;exitDy=0;" edge="1" parent="1" source="PJhBvajnf2V6batIBrMc-11">
          <mxGeometry relative="1" as="geometry">
            <mxPoint x="940" y="410" as="targetPoint" />
          </mxGeometry>
        </mxCell>
        <mxCell id="PJhBvajnf2V6batIBrMc-146" style="edgeStyle=orthogonalEdgeStyle;rounded=0;orthogonalLoop=1;jettySize=auto;html=1;exitX=0;exitY=0.5;exitDx=0;exitDy=0;" edge="1" parent="1" source="PJhBvajnf2V6batIBrMc-11">
          <mxGeometry relative="1" as="geometry">
            <mxPoint x="690" y="619.7037037037037" as="targetPoint" />
          </mxGeometry>
        </mxCell>
        <mxCell id="PJhBvajnf2V6batIBrMc-11" value="OrderItem" style="rhombus;whiteSpace=wrap;html=1;fontFamily=Times New Roman;fillColor=#f5f5f5;fontColor=#333333;strokeColor=#666666;" vertex="1" parent="1">
          <mxGeometry x="880" y="600" width="120" height="40" as="geometry" />
        </mxCell>
        <mxCell id="PJhBvajnf2V6batIBrMc-83" style="edgeStyle=orthogonalEdgeStyle;rounded=0;orthogonalLoop=1;jettySize=auto;html=1;exitX=0.5;exitY=1;exitDx=0;exitDy=0;entryX=0.5;entryY=0;entryDx=0;entryDy=0;" edge="1" parent="1" source="PJhBvajnf2V6batIBrMc-13" target="PJhBvajnf2V6batIBrMc-1">
          <mxGeometry relative="1" as="geometry" />
        </mxCell>
        <mxCell id="PJhBvajnf2V6batIBrMc-84" style="edgeStyle=orthogonalEdgeStyle;rounded=0;orthogonalLoop=1;jettySize=auto;html=1;exitX=0.5;exitY=1;exitDx=0;exitDy=0;" edge="1" parent="1" source="PJhBvajnf2V6batIBrMc-13">
          <mxGeometry relative="1" as="geometry">
            <mxPoint x="940" y="350" as="targetPoint" />
          </mxGeometry>
        </mxCell>
        <mxCell id="PJhBvajnf2V6batIBrMc-161" style="edgeStyle=orthogonalEdgeStyle;rounded=0;orthogonalLoop=1;jettySize=auto;html=1;exitX=0.5;exitY=0;exitDx=0;exitDy=0;entryX=0.5;entryY=1;entryDx=0;entryDy=0;" edge="1" parent="1" source="PJhBvajnf2V6batIBrMc-13" target="PJhBvajnf2V6batIBrMc-3">
          <mxGeometry relative="1" as="geometry" />
        </mxCell>
        <mxCell id="PJhBvajnf2V6batIBrMc-162" style="edgeStyle=orthogonalEdgeStyle;rounded=0;orthogonalLoop=1;jettySize=auto;html=1;exitX=0.5;exitY=0;exitDx=0;exitDy=0;" edge="1" parent="1" source="PJhBvajnf2V6batIBrMc-13">
          <mxGeometry relative="1" as="geometry">
            <mxPoint x="940" y="170.0000000000001" as="targetPoint" />
          </mxGeometry>
        </mxCell>
        <mxCell id="PJhBvajnf2V6batIBrMc-13" value="B-A" style="rhombus;whiteSpace=wrap;html=1;fontFamily=Times New Roman;fillColor=#f5f5f5;fontColor=#333333;strokeColor=#666666;" vertex="1" parent="1">
          <mxGeometry x="920" y="240" width="40" height="40" as="geometry" />
        </mxCell>
        <mxCell id="PJhBvajnf2V6batIBrMc-17" style="edgeStyle=orthogonalEdgeStyle;rounded=0;orthogonalLoop=1;jettySize=auto;html=1;exitX=0;exitY=0.5;exitDx=0;exitDy=0;entryX=1;entryY=0.5;entryDx=0;entryDy=0;fontFamily=Times New Roman;" edge="1" parent="1" source="PJhBvajnf2V6batIBrMc-14" target="PJhBvajnf2V6batIBrMc-4">
          <mxGeometry relative="1" as="geometry" />
        </mxCell>
        <mxCell id="PJhBvajnf2V6batIBrMc-18" style="edgeStyle=orthogonalEdgeStyle;rounded=0;orthogonalLoop=1;jettySize=auto;html=1;exitX=1;exitY=0.5;exitDx=0;exitDy=0;entryX=0;entryY=0.5;entryDx=0;entryDy=0;fontFamily=Times New Roman;" edge="1" parent="1" source="PJhBvajnf2V6batIBrMc-14" target="PJhBvajnf2V6batIBrMc-5">
          <mxGeometry relative="1" as="geometry">
            <mxPoint x="614" y="780" as="sourcePoint" />
          </mxGeometry>
        </mxCell>
        <mxCell id="PJhBvajnf2V6batIBrMc-19" style="edgeStyle=orthogonalEdgeStyle;rounded=0;orthogonalLoop=1;jettySize=auto;html=1;exitX=1;exitY=0.5;exitDx=0;exitDy=0;fontFamily=Times New Roman;" edge="1" parent="1" source="PJhBvajnf2V6batIBrMc-14">
          <mxGeometry relative="1" as="geometry">
            <mxPoint x="550" y="620" as="targetPoint" />
            <mxPoint x="400" y="719.31" as="sourcePoint" />
          </mxGeometry>
        </mxCell>
        <mxCell id="PJhBvajnf2V6batIBrMc-14" value="C-O" style="rhombus;whiteSpace=wrap;html=1;fontFamily=Times New Roman;fillColor=#f5f5f5;fontColor=#333333;strokeColor=#666666;" vertex="1" parent="1">
          <mxGeometry x="400" y="600" width="40" height="40" as="geometry" />
        </mxCell>
        <mxCell id="PJhBvajnf2V6batIBrMc-31" value="&lt;u&gt;CustomerId&lt;/u&gt;" style="ellipse;whiteSpace=wrap;html=1;fontFamily=Times New Roman;fillColor=#f5f5f5;fontColor=#333333;strokeColor=#666666;" vertex="1" parent="1">
          <mxGeometry x="45" y="680" width="80" height="40" as="geometry" />
        </mxCell>
        <mxCell id="PJhBvajnf2V6batIBrMc-32" value="Name" style="ellipse;whiteSpace=wrap;html=1;fontFamily=Times New Roman;fillColor=#f5f5f5;fontColor=#333333;strokeColor=#666666;" vertex="1" parent="1">
          <mxGeometry x="135" y="680" width="80" height="40" as="geometry" />
        </mxCell>
        <mxCell id="PJhBvajnf2V6batIBrMc-34" value="Address" style="ellipse;whiteSpace=wrap;html=1;fontFamily=Times New Roman;fillColor=#f5f5f5;fontColor=#333333;strokeColor=#666666;" vertex="1" parent="1">
          <mxGeometry x="180" y="280" width="80" height="40" as="geometry" />
        </mxCell>
        <mxCell id="PJhBvajnf2V6batIBrMc-42" value="&lt;u&gt;OrderId&lt;/u&gt;" style="ellipse;whiteSpace=wrap;html=1;fontFamily=Times New Roman;fillColor=#f5f5f5;fontColor=#333333;strokeColor=#666666;" vertex="1" parent="1">
          <mxGeometry x="445" y="520" width="80" height="40" as="geometry" />
        </mxCell>
        <mxCell id="PJhBvajnf2V6batIBrMc-47" value="City" style="ellipse;whiteSpace=wrap;html=1;fontFamily=Times New Roman;fillColor=#f5f5f5;fontColor=#333333;strokeColor=#666666;" vertex="1" parent="1">
          <mxGeometry x="90" y="200" width="80" height="40" as="geometry" />
        </mxCell>
        <mxCell id="PJhBvajnf2V6batIBrMc-48" value="Street" style="ellipse;whiteSpace=wrap;html=1;fontFamily=Times New Roman;fillColor=#f5f5f5;fontColor=#333333;strokeColor=#666666;" vertex="1" parent="1">
          <mxGeometry x="180" y="200" width="80" height="40" as="geometry" />
        </mxCell>
        <mxCell id="PJhBvajnf2V6batIBrMc-49" value="Number" style="ellipse;whiteSpace=wrap;html=1;fontFamily=Times New Roman;fillColor=#f5f5f5;fontColor=#333333;strokeColor=#666666;" vertex="1" parent="1">
          <mxGeometry x="270" y="200" width="80" height="40" as="geometry" />
        </mxCell>
        <mxCell id="PJhBvajnf2V6batIBrMc-55" value="&lt;u&gt;BookId&lt;/u&gt;" style="ellipse;whiteSpace=wrap;html=1;fontFamily=Times New Roman;fillColor=#f5f5f5;fontColor=#333333;strokeColor=#666666;" vertex="1" parent="1">
          <mxGeometry x="1040" y="260" width="80" height="40" as="geometry" />
        </mxCell>
        <mxCell id="PJhBvajnf2V6batIBrMc-59" value="Title" style="ellipse;whiteSpace=wrap;html=1;fontFamily=Times New Roman;fillColor=#f5f5f5;fontColor=#333333;strokeColor=#666666;" vertex="1" parent="1">
          <mxGeometry x="1040" y="360" width="80" height="40" as="geometry" />
        </mxCell>
        <mxCell id="PJhBvajnf2V6batIBrMc-60" value="Price" style="ellipse;whiteSpace=wrap;html=1;fontFamily=Times New Roman;fillColor=#f5f5f5;fontColor=#333333;strokeColor=#666666;" vertex="1" parent="1">
          <mxGeometry x="1040" y="410" width="80" height="40" as="geometry" />
        </mxCell>
        <mxCell id="PJhBvajnf2V6batIBrMc-61" value="&lt;u&gt;AuthorId&lt;/u&gt;" style="ellipse;whiteSpace=wrap;html=1;fontFamily=Times New Roman;fillColor=#f5f5f5;fontColor=#333333;strokeColor=#666666;" vertex="1" parent="1">
          <mxGeometry x="765" y="40" width="80" height="40" as="geometry" />
        </mxCell>
        <mxCell id="PJhBvajnf2V6batIBrMc-62" value="Name" style="ellipse;whiteSpace=wrap;html=1;fontFamily=Times New Roman;fillColor=#f5f5f5;fontColor=#333333;strokeColor=#666666;" vertex="1" parent="1">
          <mxGeometry x="855" y="40" width="80" height="40" as="geometry" />
        </mxCell>
        <mxCell id="PJhBvajnf2V6batIBrMc-64" value="&lt;u&gt;PublisherId&lt;/u&gt;" style="ellipse;whiteSpace=wrap;html=1;fontFamily=Times New Roman;fillColor=#f5f5f5;fontColor=#333333;strokeColor=#666666;" vertex="1" parent="1">
          <mxGeometry x="525" y="280" width="80" height="40" as="geometry" />
        </mxCell>
        <mxCell id="PJhBvajnf2V6batIBrMc-65" value="Name" style="ellipse;whiteSpace=wrap;html=1;fontFamily=Times New Roman;fillColor=#f5f5f5;fontColor=#333333;strokeColor=#666666;" vertex="1" parent="1">
          <mxGeometry x="615" y="280" width="80" height="40" as="geometry" />
        </mxCell>
        <mxCell id="PJhBvajnf2V6batIBrMc-66" value="&lt;u&gt;OrderItemId&lt;/u&gt;" style="ellipse;whiteSpace=wrap;html=1;fontFamily=Times New Roman;fillColor=#f5f5f5;fontColor=#333333;strokeColor=#666666;" vertex="1" parent="1">
          <mxGeometry x="720" y="680" width="80" height="40" as="geometry" />
        </mxCell>
        <mxCell id="PJhBvajnf2V6batIBrMc-71" value="Total" style="ellipse;whiteSpace=wrap;html=1;fontFamily=Times New Roman;fillColor=#f5f5f5;fontColor=#333333;strokeColor=#666666;" vertex="1" parent="1">
          <mxGeometry x="1080" y="680" width="80" height="40" as="geometry" />
        </mxCell>
        <mxCell id="PJhBvajnf2V6batIBrMc-72" value="Quantity" style="ellipse;whiteSpace=wrap;html=1;fontFamily=Times New Roman;fillColor=#f5f5f5;fontColor=#333333;strokeColor=#666666;" vertex="1" parent="1">
          <mxGeometry x="990" y="680" width="80" height="40" as="geometry" />
        </mxCell>
        <mxCell id="PJhBvajnf2V6batIBrMc-1" value="Book" style="rounded=0;whiteSpace=wrap;html=1;fontFamily=Times New Roman;fillColor=#f5f5f5;fontColor=#333333;strokeColor=#666666;" vertex="1" parent="1">
          <mxGeometry x="880" y="360" width="120" height="40" as="geometry" />
        </mxCell>
        <mxCell id="PJhBvajnf2V6batIBrMc-104" value="&lt;span style=&quot;border-bottom: 1px dotted;&quot;&gt;CustomerId&lt;/span&gt;" style="ellipse;whiteSpace=wrap;html=1;align=center;fontFamily=Times New Roman;fillColor=#f5f5f5;fontColor=#333333;strokeColor=#666666;" vertex="1" parent="1">
          <mxGeometry x="90" y="280" width="80" height="40" as="geometry" />
        </mxCell>
        <mxCell id="PJhBvajnf2V6batIBrMc-106" value="ProfileId" style="ellipse;whiteSpace=wrap;html=1;align=center;fontStyle=4;fontFamily=Times New Roman;fillColor=#f5f5f5;fontColor=#333333;strokeColor=#666666;" vertex="1" parent="1">
          <mxGeometry y="280" width="80" height="40" as="geometry" />
        </mxCell>
        <mxCell id="PJhBvajnf2V6batIBrMc-110" value="PhoneNumber" style="ellipse;shape=doubleEllipse;margin=3;whiteSpace=wrap;html=1;align=center;fontFamily=Times New Roman;fontSize=11;fillColor=#CCCCCC;fontColor=#333333;strokeColor=#000000;" vertex="1" parent="1">
          <mxGeometry x="270" y="280" width="80" height="40" as="geometry" />
        </mxCell>
        <mxCell id="PJhBvajnf2V6batIBrMc-111" value="PaymentMethod" style="ellipse;shape=doubleEllipse;margin=3;whiteSpace=wrap;html=1;align=center;fontFamily=Times New Roman;fontSize=10;fillColor=#CCCCCC;" vertex="1" parent="1">
          <mxGeometry x="360" y="280" width="80" height="40" as="geometry" />
        </mxCell>
        <mxCell id="PJhBvajnf2V6batIBrMc-112" value="Email" style="ellipse;shape=doubleEllipse;margin=3;whiteSpace=wrap;html=1;align=center;fontFamily=Times New Roman;fillColor=#CCCCCC;" vertex="1" parent="1">
          <mxGeometry x="225" y="680" width="80" height="40" as="geometry" />
        </mxCell>
        <mxCell id="PJhBvajnf2V6batIBrMc-113" value="&lt;span style=&quot;border-bottom: 1px dotted;&quot;&gt;BookId&lt;/span&gt;" style="ellipse;whiteSpace=wrap;html=1;align=center;fontFamily=Times New Roman;fillColor=#f5f5f5;fontColor=#333333;strokeColor=#666666;" vertex="1" parent="1">
          <mxGeometry x="900" y="680" width="80" height="40" as="geometry" />
        </mxCell>
        <mxCell id="PJhBvajnf2V6batIBrMc-114" value="&lt;div&gt;&lt;span style=&quot;border-bottom: 1px dotted;&quot;&gt;OrderId&lt;/span&gt;&lt;/div&gt;" style="ellipse;whiteSpace=wrap;html=1;align=center;fontFamily=Times New Roman;fillColor=#f5f5f5;fontColor=#333333;strokeColor=#666666;" vertex="1" parent="1">
          <mxGeometry x="810" y="680" width="80" height="40" as="geometry" />
        </mxCell>
        <mxCell id="PJhBvajnf2V6batIBrMc-115" value="&lt;div&gt;&lt;span style=&quot;border-bottom: 1px dotted;&quot;&gt;PublisherId&lt;/span&gt;&lt;/div&gt;" style="ellipse;whiteSpace=wrap;html=1;align=center;fontFamily=Times New Roman;fillColor=#f5f5f5;fontColor=#333333;strokeColor=#666666;" vertex="1" parent="1">
          <mxGeometry x="1040" y="310" width="80" height="40" as="geometry" />
        </mxCell>
        <mxCell id="PJhBvajnf2V6batIBrMc-116" value="" style="endArrow=none;html=1;rounded=0;exitX=0.5;exitY=0;exitDx=0;exitDy=0;entryX=0.5;entryY=1;entryDx=0;entryDy=0;" edge="1" parent="1" source="PJhBvajnf2V6batIBrMc-8" target="PJhBvajnf2V6batIBrMc-106">
          <mxGeometry width="50" height="50" relative="1" as="geometry">
            <mxPoint x="310" y="440" as="sourcePoint" />
            <mxPoint x="360" y="390" as="targetPoint" />
          </mxGeometry>
        </mxCell>
        <mxCell id="PJhBvajnf2V6batIBrMc-117" value="" style="endArrow=none;html=1;rounded=0;exitX=0.5;exitY=0;exitDx=0;exitDy=0;entryX=0.5;entryY=1;entryDx=0;entryDy=0;" edge="1" parent="1" source="PJhBvajnf2V6batIBrMc-8" target="PJhBvajnf2V6batIBrMc-104">
          <mxGeometry width="50" height="50" relative="1" as="geometry">
            <mxPoint x="230" y="370" as="sourcePoint" />
            <mxPoint x="50" y="330" as="targetPoint" />
          </mxGeometry>
        </mxCell>
        <mxCell id="PJhBvajnf2V6batIBrMc-118" value="" style="endArrow=none;html=1;rounded=0;exitX=0.5;exitY=0;exitDx=0;exitDy=0;entryX=0.5;entryY=1;entryDx=0;entryDy=0;" edge="1" parent="1" source="PJhBvajnf2V6batIBrMc-8" target="PJhBvajnf2V6batIBrMc-34">
          <mxGeometry width="50" height="50" relative="1" as="geometry">
            <mxPoint x="230" y="370" as="sourcePoint" />
            <mxPoint x="140" y="330" as="targetPoint" />
          </mxGeometry>
        </mxCell>
        <mxCell id="PJhBvajnf2V6batIBrMc-119" value="" style="endArrow=none;html=1;rounded=0;exitX=0.5;exitY=0;exitDx=0;exitDy=0;entryX=0.5;entryY=1;entryDx=0;entryDy=0;" edge="1" parent="1" source="PJhBvajnf2V6batIBrMc-8" target="PJhBvajnf2V6batIBrMc-110">
          <mxGeometry width="50" height="50" relative="1" as="geometry">
            <mxPoint x="230" y="370" as="sourcePoint" />
            <mxPoint x="230" y="330" as="targetPoint" />
          </mxGeometry>
        </mxCell>
        <mxCell id="PJhBvajnf2V6batIBrMc-120" value="" style="endArrow=none;html=1;rounded=0;exitX=0.5;exitY=0;exitDx=0;exitDy=0;entryX=0.5;entryY=1;entryDx=0;entryDy=0;" edge="1" parent="1" source="PJhBvajnf2V6batIBrMc-8" target="PJhBvajnf2V6batIBrMc-111">
          <mxGeometry width="50" height="50" relative="1" as="geometry">
            <mxPoint x="230" y="370" as="sourcePoint" />
            <mxPoint x="320" y="330" as="targetPoint" />
          </mxGeometry>
        </mxCell>
        <mxCell id="PJhBvajnf2V6batIBrMc-121" value="" style="endArrow=none;html=1;rounded=0;exitX=0.5;exitY=0;exitDx=0;exitDy=0;entryX=0.5;entryY=1;entryDx=0;entryDy=0;" edge="1" parent="1" source="PJhBvajnf2V6batIBrMc-34" target="PJhBvajnf2V6batIBrMc-49">
          <mxGeometry width="50" height="50" relative="1" as="geometry">
            <mxPoint x="230" y="370" as="sourcePoint" />
            <mxPoint x="410" y="330" as="targetPoint" />
          </mxGeometry>
        </mxCell>
        <mxCell id="PJhBvajnf2V6batIBrMc-122" value="" style="endArrow=none;html=1;rounded=0;exitX=0.5;exitY=0;exitDx=0;exitDy=0;entryX=0.5;entryY=1;entryDx=0;entryDy=0;" edge="1" parent="1" source="PJhBvajnf2V6batIBrMc-34" target="PJhBvajnf2V6batIBrMc-48">
          <mxGeometry width="50" height="50" relative="1" as="geometry">
            <mxPoint x="230" y="290" as="sourcePoint" />
            <mxPoint x="320" y="250" as="targetPoint" />
          </mxGeometry>
        </mxCell>
        <mxCell id="PJhBvajnf2V6batIBrMc-123" value="" style="endArrow=none;html=1;rounded=0;exitX=0.5;exitY=0;exitDx=0;exitDy=0;entryX=0.5;entryY=1;entryDx=0;entryDy=0;" edge="1" parent="1" source="PJhBvajnf2V6batIBrMc-34" target="PJhBvajnf2V6batIBrMc-47">
          <mxGeometry width="50" height="50" relative="1" as="geometry">
            <mxPoint x="230" y="290" as="sourcePoint" />
            <mxPoint x="230" y="250" as="targetPoint" />
          </mxGeometry>
        </mxCell>
        <mxCell id="PJhBvajnf2V6batIBrMc-124" value="" style="endArrow=none;html=1;rounded=0;exitX=0.5;exitY=1;exitDx=0;exitDy=0;entryX=0.5;entryY=0;entryDx=0;entryDy=0;" edge="1" parent="1" source="PJhBvajnf2V6batIBrMc-4" target="PJhBvajnf2V6batIBrMc-31">
          <mxGeometry width="50" height="50" relative="1" as="geometry">
            <mxPoint x="230" y="290" as="sourcePoint" />
            <mxPoint x="140" y="250" as="targetPoint" />
          </mxGeometry>
        </mxCell>
        <mxCell id="PJhBvajnf2V6batIBrMc-125" value="" style="endArrow=none;html=1;rounded=0;exitX=0.5;exitY=1;exitDx=0;exitDy=0;entryX=0.5;entryY=0;entryDx=0;entryDy=0;" edge="1" parent="1" source="PJhBvajnf2V6batIBrMc-4" target="PJhBvajnf2V6batIBrMc-32">
          <mxGeometry width="50" height="50" relative="1" as="geometry">
            <mxPoint x="230" y="650" as="sourcePoint" />
            <mxPoint x="140" y="690" as="targetPoint" />
          </mxGeometry>
        </mxCell>
        <mxCell id="PJhBvajnf2V6batIBrMc-126" value="" style="endArrow=none;html=1;rounded=0;exitX=0.5;exitY=1;exitDx=0;exitDy=0;entryX=0.5;entryY=0;entryDx=0;entryDy=0;" edge="1" parent="1" source="PJhBvajnf2V6batIBrMc-4" target="PJhBvajnf2V6batIBrMc-112">
          <mxGeometry width="50" height="50" relative="1" as="geometry">
            <mxPoint x="230" y="650" as="sourcePoint" />
            <mxPoint x="230" y="690" as="targetPoint" />
          </mxGeometry>
        </mxCell>
        <mxCell id="PJhBvajnf2V6batIBrMc-127" value="" style="endArrow=none;html=1;rounded=0;exitX=0.5;exitY=0;exitDx=0;exitDy=0;entryX=0.5;entryY=1;entryDx=0;entryDy=0;" edge="1" parent="1" source="PJhBvajnf2V6batIBrMc-5" target="PJhBvajnf2V6batIBrMc-42">
          <mxGeometry width="50" height="50" relative="1" as="geometry">
            <mxPoint x="230" y="650" as="sourcePoint" />
            <mxPoint x="320" y="690" as="targetPoint" />
          </mxGeometry>
        </mxCell>
        <mxCell id="PJhBvajnf2V6batIBrMc-131" value="" style="endArrow=none;html=1;rounded=0;entryX=0.5;entryY=0;entryDx=0;entryDy=0;exitX=0.5;exitY=1;exitDx=0;exitDy=0;" edge="1" parent="1" source="PJhBvajnf2V6batIBrMc-11" target="PJhBvajnf2V6batIBrMc-66">
          <mxGeometry width="50" height="50" relative="1" as="geometry">
            <mxPoint x="550" y="650" as="sourcePoint" />
            <mxPoint x="640" y="690" as="targetPoint" />
          </mxGeometry>
        </mxCell>
        <mxCell id="PJhBvajnf2V6batIBrMc-132" value="" style="endArrow=none;html=1;rounded=0;entryX=0.5;entryY=0;entryDx=0;entryDy=0;exitX=0.5;exitY=1;exitDx=0;exitDy=0;" edge="1" parent="1" source="PJhBvajnf2V6batIBrMc-11" target="PJhBvajnf2V6batIBrMc-114">
          <mxGeometry width="50" height="50" relative="1" as="geometry">
            <mxPoint x="950" y="650" as="sourcePoint" />
            <mxPoint x="770" y="690" as="targetPoint" />
          </mxGeometry>
        </mxCell>
        <mxCell id="PJhBvajnf2V6batIBrMc-133" value="" style="endArrow=none;html=1;rounded=0;entryX=0.5;entryY=0;entryDx=0;entryDy=0;exitX=0.5;exitY=1;exitDx=0;exitDy=0;" edge="1" parent="1" source="PJhBvajnf2V6batIBrMc-11" target="PJhBvajnf2V6batIBrMc-113">
          <mxGeometry width="50" height="50" relative="1" as="geometry">
            <mxPoint x="950" y="650" as="sourcePoint" />
            <mxPoint x="860" y="690" as="targetPoint" />
          </mxGeometry>
        </mxCell>
        <mxCell id="PJhBvajnf2V6batIBrMc-134" value="" style="endArrow=none;html=1;rounded=0;entryX=0.5;entryY=0;entryDx=0;entryDy=0;exitX=0.5;exitY=1;exitDx=0;exitDy=0;" edge="1" parent="1" source="PJhBvajnf2V6batIBrMc-11" target="PJhBvajnf2V6batIBrMc-72">
          <mxGeometry width="50" height="50" relative="1" as="geometry">
            <mxPoint x="950" y="650" as="sourcePoint" />
            <mxPoint x="950" y="690" as="targetPoint" />
          </mxGeometry>
        </mxCell>
        <mxCell id="PJhBvajnf2V6batIBrMc-135" value="" style="endArrow=none;html=1;rounded=0;entryX=0.5;entryY=0;entryDx=0;entryDy=0;exitX=0.5;exitY=1;exitDx=0;exitDy=0;" edge="1" parent="1" source="PJhBvajnf2V6batIBrMc-11" target="PJhBvajnf2V6batIBrMc-71">
          <mxGeometry width="50" height="50" relative="1" as="geometry">
            <mxPoint x="950" y="650" as="sourcePoint" />
            <mxPoint x="1040" y="690" as="targetPoint" />
          </mxGeometry>
        </mxCell>
        <mxCell id="PJhBvajnf2V6batIBrMc-136" value="" style="endArrow=none;html=1;rounded=0;entryX=0;entryY=0.5;entryDx=0;entryDy=0;exitX=1;exitY=0.5;exitDx=0;exitDy=0;" edge="1" parent="1" source="PJhBvajnf2V6batIBrMc-1" target="PJhBvajnf2V6batIBrMc-60">
          <mxGeometry width="50" height="50" relative="1" as="geometry">
            <mxPoint x="950" y="650" as="sourcePoint" />
            <mxPoint x="1130" y="690" as="targetPoint" />
          </mxGeometry>
        </mxCell>
        <mxCell id="PJhBvajnf2V6batIBrMc-137" value="" style="endArrow=none;html=1;rounded=0;entryX=0;entryY=0.5;entryDx=0;entryDy=0;exitX=1;exitY=0.5;exitDx=0;exitDy=0;" edge="1" parent="1" source="PJhBvajnf2V6batIBrMc-1" target="PJhBvajnf2V6batIBrMc-59">
          <mxGeometry width="50" height="50" relative="1" as="geometry">
            <mxPoint x="1010" y="390" as="sourcePoint" />
            <mxPoint x="1050" y="465" as="targetPoint" />
          </mxGeometry>
        </mxCell>
        <mxCell id="PJhBvajnf2V6batIBrMc-138" value="" style="endArrow=none;html=1;rounded=0;entryX=0;entryY=0.5;entryDx=0;entryDy=0;exitX=1;exitY=0.5;exitDx=0;exitDy=0;" edge="1" parent="1" source="PJhBvajnf2V6batIBrMc-1" target="PJhBvajnf2V6batIBrMc-115">
          <mxGeometry width="50" height="50" relative="1" as="geometry">
            <mxPoint x="1010" y="390" as="sourcePoint" />
            <mxPoint x="1050" y="415" as="targetPoint" />
          </mxGeometry>
        </mxCell>
        <mxCell id="PJhBvajnf2V6batIBrMc-139" value="" style="endArrow=none;html=1;rounded=0;entryX=0;entryY=0.5;entryDx=0;entryDy=0;exitX=1;exitY=0.5;exitDx=0;exitDy=0;" edge="1" parent="1" source="PJhBvajnf2V6batIBrMc-1" target="PJhBvajnf2V6batIBrMc-55">
          <mxGeometry width="50" height="50" relative="1" as="geometry">
            <mxPoint x="1010" y="390" as="sourcePoint" />
            <mxPoint x="1050" y="365" as="targetPoint" />
          </mxGeometry>
        </mxCell>
        <mxCell id="PJhBvajnf2V6batIBrMc-140" value="" style="endArrow=none;html=1;rounded=0;entryX=0.5;entryY=1;entryDx=0;entryDy=0;exitX=0.5;exitY=0;exitDx=0;exitDy=0;" edge="1" parent="1" source="PJhBvajnf2V6batIBrMc-2" target="PJhBvajnf2V6batIBrMc-65">
          <mxGeometry width="50" height="50" relative="1" as="geometry">
            <mxPoint x="1010" y="390" as="sourcePoint" />
            <mxPoint x="1050" y="315" as="targetPoint" />
          </mxGeometry>
        </mxCell>
        <mxCell id="PJhBvajnf2V6batIBrMc-141" value="" style="endArrow=none;html=1;rounded=0;entryX=0.5;entryY=1;entryDx=0;entryDy=0;exitX=0.5;exitY=0;exitDx=0;exitDy=0;" edge="1" parent="1" source="PJhBvajnf2V6batIBrMc-2" target="PJhBvajnf2V6batIBrMc-64">
          <mxGeometry width="50" height="50" relative="1" as="geometry">
            <mxPoint x="630" y="370" as="sourcePoint" />
            <mxPoint x="675" y="330" as="targetPoint" />
          </mxGeometry>
        </mxCell>
        <mxCell id="PJhBvajnf2V6batIBrMc-142" value="" style="endArrow=none;html=1;rounded=0;entryX=0.5;entryY=1;entryDx=0;entryDy=0;exitX=0.5;exitY=0;exitDx=0;exitDy=0;" edge="1" parent="1" source="PJhBvajnf2V6batIBrMc-3" target="PJhBvajnf2V6batIBrMc-62">
          <mxGeometry width="50" height="50" relative="1" as="geometry">
            <mxPoint x="630" y="370" as="sourcePoint" />
            <mxPoint x="585" y="330" as="targetPoint" />
          </mxGeometry>
        </mxCell>
        <mxCell id="PJhBvajnf2V6batIBrMc-143" value="" style="endArrow=none;html=1;rounded=0;entryX=0.5;entryY=1;entryDx=0;entryDy=0;exitX=0.5;exitY=0;exitDx=0;exitDy=0;" edge="1" parent="1" source="PJhBvajnf2V6batIBrMc-3" target="PJhBvajnf2V6batIBrMc-61">
          <mxGeometry width="50" height="50" relative="1" as="geometry">
            <mxPoint x="1010" y="150" as="sourcePoint" />
            <mxPoint x="1050" y="175" as="targetPoint" />
          </mxGeometry>
        </mxCell>
        <mxCell id="PJhBvajnf2V6batIBrMc-144" value="RegistrationDate" style="ellipse;whiteSpace=wrap;html=1;fontFamily=Times New Roman;fontSize=11;fillColor=#f5f5f5;fontColor=#333333;strokeColor=#666666;" vertex="1" parent="1">
          <mxGeometry x="315" y="680" width="80" height="40" as="geometry" />
        </mxCell>
        <mxCell id="PJhBvajnf2V6batIBrMc-145" value="" style="endArrow=none;html=1;rounded=0;exitX=0.5;exitY=1;exitDx=0;exitDy=0;entryX=0.5;entryY=0;entryDx=0;entryDy=0;" edge="1" parent="1" source="PJhBvajnf2V6batIBrMc-4" target="PJhBvajnf2V6batIBrMc-144">
          <mxGeometry width="50" height="50" relative="1" as="geometry">
            <mxPoint x="230" y="650" as="sourcePoint" />
            <mxPoint x="185" y="690" as="targetPoint" />
          </mxGeometry>
        </mxCell>
        <mxCell id="PJhBvajnf2V6batIBrMc-148" value="&lt;span style=&quot;border-bottom: 1px dotted;&quot;&gt;CustomerId&lt;/span&gt;" style="ellipse;whiteSpace=wrap;html=1;align=center;fontFamily=Times New Roman;fillColor=#f5f5f5;fontColor=#333333;strokeColor=#666666;" vertex="1" parent="1">
          <mxGeometry x="535" y="520" width="80" height="40" as="geometry" />
        </mxCell>
        <mxCell id="PJhBvajnf2V6batIBrMc-150" value="" style="endArrow=none;html=1;rounded=0;entryX=0.5;entryY=1;entryDx=0;entryDy=0;" edge="1" parent="1" target="PJhBvajnf2V6batIBrMc-148">
          <mxGeometry width="50" height="50" relative="1" as="geometry">
            <mxPoint x="620" y="600" as="sourcePoint" />
            <mxPoint x="480" y="540" as="targetPoint" />
          </mxGeometry>
        </mxCell>
        <mxCell id="PJhBvajnf2V6batIBrMc-151" value="Status" style="ellipse;whiteSpace=wrap;html=1;fontFamily=Times New Roman;fillColor=#f5f5f5;fontColor=#333333;strokeColor=#666666;" vertex="1" parent="1">
          <mxGeometry x="715" y="520" width="80" height="40" as="geometry" />
        </mxCell>
        <mxCell id="PJhBvajnf2V6batIBrMc-152" value="" style="endArrow=none;html=1;rounded=0;entryX=0.5;entryY=1;entryDx=0;entryDy=0;exitX=0.5;exitY=0;exitDx=0;exitDy=0;" edge="1" parent="1" source="PJhBvajnf2V6batIBrMc-5" target="PJhBvajnf2V6batIBrMc-151">
          <mxGeometry width="50" height="50" relative="1" as="geometry">
            <mxPoint x="630" y="610" as="sourcePoint" />
            <mxPoint x="690" y="540" as="targetPoint" />
          </mxGeometry>
        </mxCell>
        <mxCell id="PJhBvajnf2V6batIBrMc-153" value="Date" style="ellipse;whiteSpace=wrap;html=1;fontFamily=Times New Roman;fillColor=#f5f5f5;fontColor=#333333;strokeColor=#666666;" vertex="1" parent="1">
          <mxGeometry x="625" y="520" width="80" height="40" as="geometry" />
        </mxCell>
        <mxCell id="PJhBvajnf2V6batIBrMc-154" value="" style="endArrow=none;html=1;rounded=0;entryX=0.5;entryY=1;entryDx=0;entryDy=0;exitX=0.5;exitY=0;exitDx=0;exitDy=0;" edge="1" parent="1" source="PJhBvajnf2V6batIBrMc-5" target="PJhBvajnf2V6batIBrMc-153">
          <mxGeometry width="50" height="50" relative="1" as="geometry">
            <mxPoint x="630" y="610" as="sourcePoint" />
            <mxPoint x="765" y="570" as="targetPoint" />
          </mxGeometry>
        </mxCell>
        <mxCell id="PJhBvajnf2V6batIBrMc-155" value="ISBN" style="ellipse;whiteSpace=wrap;html=1;fontFamily=Times New Roman;fillColor=#f5f5f5;fontColor=#333333;strokeColor=#666666;" vertex="1" parent="1">
          <mxGeometry x="1040" y="460" width="80" height="40" as="geometry" />
        </mxCell>
        <mxCell id="PJhBvajnf2V6batIBrMc-156" value="" style="endArrow=none;html=1;rounded=0;entryX=0;entryY=0.5;entryDx=0;entryDy=0;exitX=1;exitY=0.5;exitDx=0;exitDy=0;" edge="1" parent="1" source="PJhBvajnf2V6batIBrMc-1" target="PJhBvajnf2V6batIBrMc-155">
          <mxGeometry width="50" height="50" relative="1" as="geometry">
            <mxPoint x="1010" y="390" as="sourcePoint" />
            <mxPoint x="1210" y="420" as="targetPoint" />
          </mxGeometry>
        </mxCell>
        <mxCell id="PJhBvajnf2V6batIBrMc-157" value="Country" style="ellipse;whiteSpace=wrap;html=1;fontFamily=Times New Roman;fillColor=#f5f5f5;fontColor=#333333;strokeColor=#666666;" vertex="1" parent="1">
          <mxGeometry x="795" y="280" width="80" height="40" as="geometry" />
        </mxCell>
        <mxCell id="PJhBvajnf2V6batIBrMc-158" value="FoundedYear" style="ellipse;whiteSpace=wrap;html=1;fontFamily=Times New Roman;fillColor=#f5f5f5;fontColor=#333333;strokeColor=#666666;" vertex="1" parent="1">
          <mxGeometry x="705" y="280" width="80" height="40" as="geometry" />
        </mxCell>
        <mxCell id="PJhBvajnf2V6batIBrMc-159" value="" style="endArrow=none;html=1;rounded=0;entryX=0.5;entryY=1;entryDx=0;entryDy=0;exitX=0.5;exitY=0;exitDx=0;exitDy=0;" edge="1" parent="1" source="PJhBvajnf2V6batIBrMc-2" target="PJhBvajnf2V6batIBrMc-157">
          <mxGeometry width="50" height="50" relative="1" as="geometry">
            <mxPoint x="630" y="370" as="sourcePoint" />
            <mxPoint x="675" y="330" as="targetPoint" />
          </mxGeometry>
        </mxCell>
        <mxCell id="PJhBvajnf2V6batIBrMc-160" value="" style="endArrow=none;html=1;rounded=0;entryX=0.5;entryY=1;entryDx=0;entryDy=0;exitX=0.5;exitY=0;exitDx=0;exitDy=0;" edge="1" parent="1" source="PJhBvajnf2V6batIBrMc-2" target="PJhBvajnf2V6batIBrMc-158">
          <mxGeometry width="50" height="50" relative="1" as="geometry">
            <mxPoint x="630" y="370" as="sourcePoint" />
            <mxPoint x="790" y="340" as="targetPoint" />
          </mxGeometry>
        </mxCell>
        <mxCell id="PJhBvajnf2V6batIBrMc-163" value="BirthYear" style="ellipse;whiteSpace=wrap;html=1;fontFamily=Times New Roman;fillColor=#f5f5f5;fontColor=#333333;strokeColor=#666666;" vertex="1" parent="1">
          <mxGeometry x="945" y="40" width="80" height="40" as="geometry" />
        </mxCell>
        <mxCell id="PJhBvajnf2V6batIBrMc-165" value="Nationality" style="ellipse;whiteSpace=wrap;html=1;fontFamily=Times New Roman;fillColor=#f5f5f5;fontColor=#333333;strokeColor=#666666;" vertex="1" parent="1">
          <mxGeometry x="1035" y="40" width="80" height="40" as="geometry" />
        </mxCell>
        <mxCell id="PJhBvajnf2V6batIBrMc-166" value="" style="endArrow=none;html=1;rounded=0;entryX=0.5;entryY=1;entryDx=0;entryDy=0;exitX=0.5;exitY=0;exitDx=0;exitDy=0;" edge="1" parent="1" source="PJhBvajnf2V6batIBrMc-3" target="PJhBvajnf2V6batIBrMc-163">
          <mxGeometry width="50" height="50" relative="1" as="geometry">
            <mxPoint x="950" y="130" as="sourcePoint" />
            <mxPoint x="860" y="90" as="targetPoint" />
          </mxGeometry>
        </mxCell>
        <mxCell id="PJhBvajnf2V6batIBrMc-167" value="" style="endArrow=none;html=1;rounded=0;entryX=0.5;entryY=1;entryDx=0;entryDy=0;exitX=0.5;exitY=0;exitDx=0;exitDy=0;" edge="1" parent="1" source="PJhBvajnf2V6batIBrMc-3" target="PJhBvajnf2V6batIBrMc-165">
          <mxGeometry width="50" height="50" relative="1" as="geometry">
            <mxPoint x="950" y="130" as="sourcePoint" />
            <mxPoint x="950" y="90" as="targetPoint" />
          </mxGeometry>
        </mxCell>
      </root>
    </mxGraphModel>
  </diagram>
</mxfile>
